<?xml version="1.0" standalone="no"?>
<!DOCTYPE svg PUBLIC "-//W3C//DTD SVG 20010904//EN"
 "http://www.w3.org/TR/2001/REC-SVG-20010904/DTD/svg10.dtd">
<svg version="1.0" xmlns="http://www.w3.org/2000/svg"
 width="7844.000000pt" height="7861.000000pt" viewBox="0 0 7844.000000 7861.000000"
 preserveAspectRatio="xMidYMid meet">

<g transform="translate(0.000000,7861.000000) scale(0.100000,-0.100000)"
fill="#000000" stroke="none">
<path d="M0 39305 l0 -39305 39220 0 39220 0 0 39305 0 39305 -39220 0 -39220
0 0 -39305z m78040 -30 l0 -38875 -38790 0 -38790 0 0 38868 c0 21378 3 38872
7 38875 3 4 17459 7 38790 7 l38783 0 0 -38875z"/>
<path d="M3961 75180 c-1 -3 -6 -70 -11 -150 -9 -164 -21 -219 -56 -271 -14
-20 -38 -89 -56 -155 l-31 -119 -10 -1740 c-15 -2387 -15 -64389 0 -66760 l10
-1710 27 -80 c45 -132 -28 -118 668 -127 332 -4 3221 -10 6420 -14 l5817 -7
22 49 c17 36 24 79 30 164 4 63 13 3654 20 7980 10 6255 10 11709 0 26640 -15
24334 -34 35682 -61 36006 -12 154 -55 274 -96 274 -30 0 -39 -45 -42 -214
l-4 -168 -3372 7 c-5722 11 -9197 22 -9203 29 -3 3 -20 88 -38 188 -18 101
-34 181 -34 178z m10295 -5707 l1542 -6 23 -86 c22 -82 23 -109 29 -581 4
-272 13 -3809 20 -7860 19 -10476 -3 -36962 -40 -46975 -10 -2767 -23 -4622
-33 -4631 -22 -22 -791 -40 -2352 -55 -1765 -17 -8032 -18 -8291 -1 -213 14
-311 30 -329 56 -9 11 -14 177 -18 563 -17 1453 -29 21361 -23 36553 8 17647
16 22941 36 22965 32 38 222 54 770 65 432 9 6098 4 8666 -7z"/>
<path d="M6780 65589 c-283 -5 -555 -12 -605 -16 l-90 -8 -7 -40 c-13 -75 -28
-2203 -28 -4186 l0 -1977 723 -6 c1113 -10 7828 -29 7835 -22 7 7 -18 6238
-25 6246 -15 16 -6877 23 -7803 9z m7160 -3145 l0 -2666 -1907 7 c-3310 12
-5324 23 -5330 29 -7 6 -16 1321 -28 3804 l-7 1492 3636 0 3636 0 0 -2666z"/>
<path d="M7495 49930 c-919 -8 -1398 -20 -1413 -35 -15 -15 -22 -774 -28
-3386 -4 -1674 -3 -2808 2 -2812 8 -4 3156 -18 7323 -31 l1234 -4 -8 1992 c-4
1095 -11 2502 -14 3126 l-6 1135 -1060 6 c-2115 12 -5062 17 -6030 9z m6445
-3154 l0 -2665 -1172 5 c-3648 14 -6063 26 -6067 30 -5 5 -15 1533 -26 3812
l-7 1482 3636 0 3636 0 0 -2664z"/>
<path d="M6975 34870 c-585 -8 -864 -17 -886 -30 -23 -15 -28 -468 -35 -3386
l-7 -2812 264 -6 c384 -9 8288 -30 8296 -22 7 6 -16 6238 -23 6245 -14 15
-6525 24 -7609 11z m6965 -3146 l0 -2667 -2232 8 c-3753 13 -4996 20 -5004 28
-8 7 -17 1194 -29 3805 l-7 1492 3636 0 3636 0 0 -2666z"/>
<path d="M7110 18150 c-681 -9 -1013 -19 -1027 -34 -18 -17 -25 -921 -26
-3441 l-2 -2760 1375 -6 c756 -3 2682 -10 4279 -14 l2904 -8 -6 1684 c-4 926
-10 2332 -14 3125 l-6 1441 -786 6 c-1326 11 -5934 16 -6691 7z m6830 -3150
l0 -2660 -922 0 c-1142 0 -6311 21 -6317 26 -5 4 -16 1586 -26 3812 l-7 1482
3636 0 3636 0 0 -2660z"/>
<path d="M67890 74060 c-153 -12 -470 -54 -605 -81 -129 -26 -394 -99 -538
-149 -293 -101 -500 -209 -842 -441 -396 -267 -755 -626 -1010 -1009 -292
-439 -483 -924 -570 -1444 -38 -231 -48 -361 -48 -606 0 -246 10 -375 49 -610
102 -617 356 -1183 755 -1686 129 -163 446 -480 611 -612 385 -306 787 -512
1309 -670 1133 -343 2349 -167 3317 480 1300 870 1922 2416 1575 3918 -339
1472 -1566 2608 -3094 2864 -265 44 -657 64 -909 46z m446 -470 c366 -29 685
-102 999 -227 923 -367 1657 -1128 1961 -2036 95 -281 124 -483 131 -899 11
-636 -53 -977 -268 -1427 -402 -840 -1168 -1509 -2061 -1802 -430 -140 -1201
-169 -1713 -64 -376 78 -795 255 -1130 478 -786 525 -1305 1333 -1439 2245
-68 454 -36 912 95 1368 202 704 684 1361 1309 1783 638 432 1392 639 2116
581z"/>
<path d="M46970 65599 c-355 -6 -577 -21 -628 -40 -14 -5 -38 -21 -54 -34 -54
-45 -203 -74 -493 -95 -759 -54 -1671 -192 -2499 -376 -160 -36 -358 -76 -440
-90 -317 -53 -586 -124 -1386 -365 -277 -84 -840 -262 -900 -285 -19 -7 -127
-45 -240 -85 -113 -39 -356 -129 -540 -199 -184 -70 -402 -151 -485 -179 -82
-29 -242 -97 -355 -151 -113 -54 -257 -121 -320 -150 -611 -278 -1571 -757
-1940 -968 -465 -266 -1494 -929 -1995 -1287 -1015 -724 -1930 -1500 -2830
-2400 -894 -893 -1666 -1804 -2374 -2800 -169 -237 -748 -1101 -848 -1265 -61
-101 -391 -673 -521 -905 -60 -108 -554 -1101 -721 -1450 -134 -281 -421 -923
-468 -1045 -13 -36 -35 -106 -48 -157 -13 -51 -47 -143 -75 -205 -88 -193
-128 -301 -145 -389 -18 -90 -58 -201 -123 -339 -52 -113 -88 -226 -107 -334
-9 -49 -42 -168 -74 -265 -76 -226 -125 -397 -200 -696 -161 -646 -355 -1617
-465 -2330 -109 -706 -195 -1673 -196 -2195 -1 -209 -14 -461 -30 -553 -6 -37
-31 -102 -61 -162 -60 -122 -84 -235 -76 -360 8 -108 23 -154 64 -193 69 -64
87 -200 118 -857 43 -926 61 -1127 176 -1925 130 -906 161 -1079 254 -1445 30
-115 86 -349 125 -520 181 -784 305 -1212 496 -1710 40 -105 78 -220 84 -255
34 -190 48 -231 158 -480 28 -63 63 -159 77 -213 48 -186 165 -459 563 -1312
151 -324 288 -624 304 -665 42 -107 65 -149 213 -395 121 -202 202 -348 407
-730 99 -185 166 -297 221 -370 24 -33 60 -94 80 -135 113 -237 1031 -1538
1517 -2150 651 -819 1419 -1642 2325 -2491 781 -732 1813 -1552 2660 -2114
472 -313 889 -571 1355 -838 434 -249 470 -268 1205 -630 888 -437 1059 -518
1605 -762 90 -41 204 -78 315 -104 27 -7 110 -41 185 -76 178 -84 213 -97 398
-151 86 -25 324 -102 527 -170 767 -258 1183 -374 2085 -582 1021 -236 1206
-270 1880 -352 300 -37 514 -79 608 -120 24 -11 69 -24 100 -29 276 -49 1469
-76 2952 -68 1480 9 2129 34 2280 89 176 63 388 105 761 148 399 46 595 78
914 149 99 22 313 67 475 101 743 155 1296 297 2089 539 368 112 475 150 630
222 128 60 183 77 286 89 93 11 190 42 290 93 91 45 276 123 600 252 688 273
1650 733 2340 1118 182 101 384 212 450 247 165 87 273 150 531 311 415 258
1037 671 1394 924 318 226 1120 867 1645 1314 819 698 1759 1668 2541 2622
493 601 882 1128 1396 1891 316 470 350 524 655 1063 303 534 463 843 811
1560 347 719 436 916 576 1285 47 124 124 320 172 435 117 286 152 385 159
464 7 79 40 183 95 306 80 180 223 664 431 1465 306 1174 523 2566 604 3880
82 1347 -4 3345 -205 4741 -60 416 -93 586 -219 1124 -21 94 -56 251 -76 350
-144 705 -468 1783 -840 2790 -221 600 -475 1172 -867 1955 -433 867 -807
1525 -1268 2230 -199 306 -296 459 -312 497 -19 45 -132 207 -243 348 -885
1130 -928 1184 -1194 1485 -708 800 -1774 1866 -2431 2429 -74 64 -281 234
-460 379 -179 144 -363 294 -410 333 -172 142 -892 645 -1485 1038 -387 257
-559 365 -649 407 -39 18 -106 59 -149 91 -151 115 -402 254 -1037 572 -473
237 -882 435 -1420 683 -415 192 -462 211 -891 372 -185 69 -395 150 -466 180
-170 72 -238 94 -322 106 -38 5 -114 26 -168 46 -261 97 -467 164 -783 255
-190 55 -469 138 -620 184 -313 96 -538 153 -755 190 -82 14 -265 51 -405 81
-458 100 -631 134 -895 179 -613 105 -1208 181 -1690 215 -299 22 -436 49
-499 99 -43 34 -55 37 -191 51 -243 26 -1724 36 -2595 19z m1940 -2808 c1283
-71 2338 -202 3145 -392 268 -63 482 -106 618 -124 186 -24 553 -120 967 -254
85 -27 331 -104 545 -171 684 -213 1215 -414 1905 -720 847 -376 1957 -955
2680 -1398 795 -488 1898 -1328 2765 -2107 247 -222 957 -928 1205 -1200 878
-960 1547 -1840 2296 -3021 239 -378 685 -1222 1061 -2008 121 -253 160 -345
188 -436 9 -30 61 -147 115 -260 166 -347 283 -638 320 -795 10 -44 46 -159
80 -255 275 -781 551 -1752 580 -2039 12 -119 39 -254 96 -486 114 -460 201
-1103 269 -1965 78 -1004 97 -2224 45 -2875 -34 -422 -132 -1258 -195 -1662
-156 -1007 -557 -2553 -903 -3478 -320 -856 -880 -2037 -1390 -2935 -1010
-1776 -2297 -3370 -3840 -4754 -635 -569 -1244 -1065 -1605 -1310 -71 -47
-204 -142 -295 -210 -626 -463 -1550 -1011 -2532 -1502 -395 -197 -611 -298
-1000 -464 -151 -65 -363 -158 -471 -208 -189 -88 -295 -127 -464 -172 -44
-12 -136 -46 -205 -75 -297 -128 -782 -286 -1116 -365 -167 -39 -236 -62 -364
-121 -121 -54 -193 -74 -300 -83 -104 -9 -280 -46 -578 -122 -335 -86 -605
-145 -897 -199 -324 -59 -519 -86 -1054 -145 -249 -28 -517 -59 -595 -70 -412
-58 -772 -74 -1626 -74 -1548 1 -2950 91 -3615 234 -188 40 -557 114 -755 150
-322 60 -808 168 -1104 247 -337 89 -1135 333 -1576 482 -324 109 -427 148
-692 262 -114 49 -255 105 -313 124 -321 108 -1774 822 -2406 1183 -533 305
-1181 727 -1659 1081 -69 51 -163 116 -210 143 -143 85 -273 190 -1130 914
-349 295 -550 482 -1020 953 -642 643 -999 1033 -1456 1596 -229 283 -390 490
-519 670 -197 275 -986 1468 -1035 1565 -13 25 -73 133 -135 240 -282 492
-863 1662 -1087 2190 -320 754 -302 708 -317 806 -5 33 -26 103 -46 155 -130
336 -230 640 -380 1164 -151 525 -227 839 -239 989 -7 76 -31 178 -96 396 -45
153 -86 361 -110 560 -11 96 -43 339 -71 540 -82 594 -88 644 -109 854 -56
568 -74 1065 -67 1816 3 322 11 673 17 780 63 1165 161 1969 345 2845 137 651
273 1176 421 1626 79 244 114 373 114 429 0 58 37 173 91 288 62 129 109 251
139 358 91 326 766 1863 928 2114 20 30 81 143 137 250 208 399 630 1136 801
1398 282 431 831 1188 1174 1617 1153 1444 2560 2778 3940 3735 74 52 232 162
350 246 246 173 376 259 413 273 31 12 178 103 473 294 117 75 274 170 350
211 77 41 247 133 379 205 477 261 1075 555 1715 843 439 198 540 239 905 371
2077 752 4093 1168 6090 1257 132 6 272 12 310 14 153 7 1422 -3 1605 -13z"/>
<path d="M53405 18090 c-253 -8 -295 -14 -295 -40 0 -25 102 -226 190 -375 63
-108 100 -178 164 -315 11 -25 62 -112 111 -195 109 -180 306 -527 518 -910
85 -154 291 -523 459 -820 405 -717 884 -1574 1103 -1975 234 -428 381 -688
473 -835 42 -66 112 -192 157 -280 97 -190 246 -460 850 -1535 249 -443 555
-989 680 -1215 126 -225 263 -466 305 -535 42 -69 242 -426 445 -795 947
-1724 2223 -3992 2577 -4583 71 -117 81 -131 98 -122 54 29 271 384 1435 2345
673 1135 1191 2005 1318 2215 143 236 519 866 1047 1755 251 424 843 1418
1315 2210 472 792 1020 1712 1218 2045 198 333 500 841 672 1130 171 289 394
665 495 835 299 507 614 1035 764 1280 173 284 266 445 266 461 0 7 -17 15
-37 18 -193 30 -3115 80 -9348 161 -1798 23 -3910 52 -5495 75 -743 11 -1142
11 -1485 0z m3475 -845 c481 -3 1192 -10 1580 -15 1790 -25 3814 -57 5055 -80
1039 -19 1990 -31 3225 -40 1336 -11 1549 -18 1579 -54 8 -9 -3 -39 -35 -102
-137 -266 -772 -1345 -1894 -3219 -691 -1154 -1394 -2333 -3357 -5635 -1392
-2341 -1568 -2631 -1685 -2784 -92 -121 -79 -126 -206 86 -648 1086 -4135
7263 -5274 9343 -377 688 -947 1706 -1160 2074 -120 206 -208 375 -208 399 0
5 12 13 28 18 35 9 843 21 1202 17 151 -1 669 -5 1150 -8z"/>
<path d="M36203 18053 c-7 -2 -47 -49 -88 -104 -73 -97 -349 -554 -1120 -1854
-631 -1063 -1294 -2177 -1650 -2770 -188 -313 -566 -948 -840 -1410 -274 -462
-883 -1486 -1353 -2275 -1406 -2358 -1539 -2581 -2182 -3665 -339 -572 -718
-1206 -840 -1410 -307 -510 -376 -627 -424 -723 -48 -97 -46 -102 54 -102 36
0 238 -4 450 -10 1540 -38 8605 -139 12605 -180 539 -5 1174 -12 1410 -15 627
-8 2095 -9 2102 -1 19 18 -38 137 -244 511 -125 226 -254 455 -288 510 -65
106 -130 222 -370 660 -82 149 -253 455 -380 680 -521 922 -1152 2052 -1420
2545 -70 129 -195 346 -277 482 -81 136 -161 275 -177 310 -41 91 -322 600
-862 1559 -333 592 -718 1282 -834 1494 -48 88 -111 196 -139 240 -70 108 -92
147 -481 855 -982 1788 -2616 4687 -2638 4679 -1 0 -8 -3 -14 -6z m166 -1958
c334 -560 998 -1722 1908 -3340 754 -1340 3161 -5647 3488 -6240 338 -615 698
-1255 1041 -1854 87 -150 141 -267 131 -277 -17 -17 -319 -23 -1242 -23 -555
-1 -1372 4 -1815 9 -1807 22 -3901 54 -5905 90 -1114 20 -1980 31 -3225 40
-1368 10 -1600 18 -1631 56 -9 10 2 38 46 121 171 322 785 1362 1970 3343 682
1139 1856 3110 3330 5590 1409 2371 1593 2673 1681 2749 l37 33 18 -23 c10
-13 86 -136 168 -274z"/>
</g>
</svg>
